<svg xmlns="http://www.w3.org/2000/svg" width="26" height="26" viewBox="0 0 26 26">
    <g fill="#FFF" fill-rule="evenodd" stroke="#FFF">
        <path d="M13 1C6.383 1 1 6.383 1 13s5.383 12 12 12 12-5.383 12-12S19.617 1 13 1zm0 23.143C6.856 24.143 1.857 19.144 1.857 13 1.857 6.856 6.856 1.857 13 1.857c6.144 0 11.143 4.999 11.143 11.143 0 6.144-4.999 11.143-11.143 11.143z"/>
        <path d="M17.48 8.52H8.52a.373.373 0 1 0 0 .747h8.96a.373.373 0 1 0 0-.746zM17.48 12.627H8.52a.373.373 0 1 0 0 .746h8.96a.373.373 0 1 0 0-.746zM17.48 16.733H8.52a.373.373 0 1 0 0 .746h8.96a.373.373 0 1 0 0-.746z"/>
    </g>
</svg>
